<svg xmlns="http://www.w3.org/2000/svg" viewBox="0 0 839.83 204.55"><defs><style>.cls-1{fill:#fcfcfc;}</style></defs><g id="Layer_2" data-name="Layer 2"><g id="Layer_1-2" data-name="Layer 1"><path class="cls-1" d="M.2,108.76a102.3,102.3,0,0,0,95.57,95.59c59.08,3.7,108.78-43.91,108.78-103.11V50.44A50.44,50.44,0,0,0,154.11,0h-50.8C44.12,0-3.5,49.69.2,108.76ZM116,154.42c-40.31,9.94-75.78-25.53-65.85-65.84A52.73,52.73,0,0,1,88.57,50.13c40.3-9.94,75.79,25.53,65.85,65.84A52.69,52.69,0,0,1,116,154.42Z"/><path class="cls-1" d="M286.58,76.83v-7h23.29v77.45H286.58v-6.73a32.76,32.76,0,0,1-22.87,8.7q-16.41,0-27.22-11.79-10.67-11.64-10.66-29.18t10.66-28.91q10.66-11.49,27.22-11.5A31.87,31.87,0,0,1,286.58,76.83Zm-.28,31.57a17.19,17.19,0,0,0-5.19-12.63,17.44,17.44,0,0,0-12.77-5.33,16.87,16.87,0,0,0-12.77,5.33,17.46,17.46,0,0,0-5,12.63,17.82,17.82,0,0,0,5,12.91A18,18,0,0,0,286.3,108.4Z"/><path class="cls-1" d="M351,69.81v77.45H326.15V69.81Z"/><path class="cls-1" d="M464.78,114l15.71-44.2h27.08l-33.25,77.31H454.39L421.28,69.81H448.5Z"/><path class="cls-1" d="M541.25,69.81v77.45H516.41V69.81Z"/><path class="cls-1" d="M585.3,149.37q-20.2,0-34.37-13.33L562,119.34Q573.1,129,585.16,129q8.28,0,8.28-4.91,0-2.65-4.21-4.35a2,2,0,0,1-.56-.14l-1.12-.35c-.47-.14-1-.32-1.69-.56s-1.42-.49-2.31-.77-1.85-.61-2.88-1q-9-3.22-10.66-3.93-14.46-6.73-14.45-21a21.28,21.28,0,0,1,8.7-17.68q8.55-6.87,23.29-6.87a44.6,44.6,0,0,1,28.9,10.1L605.79,93.81q-9.82-6.6-18.66-6.6a9.25,9.25,0,0,0-5,1.26,3.65,3.65,0,0,0-2,3.09q0,3.64,7,5.61a98.15,98.15,0,0,1,18.24,6.74q13.18,6.45,13.19,19.64a23,23,0,0,1-9,18.66Q600.6,149.36,585.3,149.37Z"/><path class="cls-1" d="M629.64,113.45V69.81h24.84v43.92a13.06,13.06,0,0,0,3.36,9.33,11.74,11.74,0,0,0,9,3.58,12,12,0,0,0,9.12-3.51q3.38-3.51,3.37-9.4V69.81h24.84v43.64q0,17-9.9,26.38t-27.43,9.4q-17.54,0-27.36-9.4T629.64,113.45Z"/><path class="cls-1" d="M776.13,76.83v-7h23.29v77.45H776.13v-6.73a32.79,32.79,0,0,1-22.87,8.7q-16.43,0-27.22-11.79-10.66-11.64-10.67-29.18T726,79.35q10.65-11.49,27.22-11.5A31.87,31.87,0,0,1,776.13,76.83Zm-.28,31.57a17.2,17.2,0,0,0-5.2-12.63,17.42,17.42,0,0,0-12.76-5.33,16.85,16.85,0,0,0-12.77,5.33,17.42,17.42,0,0,0-5,12.63,17.78,17.78,0,0,0,5,12.91,18,18,0,0,0,30.73-12.91Z"/><path class="cls-1" d="M839.83,55.18v92.08h-24.7V55.18Z"/><rect class="cls-1" x="366" y="69.81" width="24.69" height="77.45"/><rect class="cls-1" x="389.68" y="70.42" width="24.69" height="23.48" transform="translate(319.87 484.19) rotate(-90)"/></g></g></svg>